<svg width="21" height="15" viewBox="0 0 21 15" fill="none" xmlns="http://www.w3.org/2000/svg">
<path d="M5.98267 0.913483H15.9841V14.981H5.98267V0.913483Z" fill="white"/>
<path d="M0.983398 0.913483H5.98271V14.981H0.983398V0.913483ZM15.9841 0.913483H20.9834V14.981H15.9868L15.9841 0.913483ZM7.48167 7.71096L7.08968 7.84284L8.89782 9.42269C9.03585 9.82658 8.85089 9.94473 8.73219 10.159L10.6922 9.91176L10.6452 11.8763L11.0538 11.8653L10.9627 9.91451L12.9282 10.148C12.8067 9.89253 12.6991 9.75789 12.8095 9.35125L14.6149 7.85383L14.3002 7.73843C14.0407 7.54061 14.4106 6.78503 14.4658 6.30695C14.4658 6.30695 13.414 6.66688 13.345 6.4773L13.0745 5.96351L12.1166 7.01308C12.0117 7.0378 11.9675 6.99659 11.9427 6.90867L12.3844 4.71611L11.6832 5.10901C11.6252 5.13649 11.5672 5.11451 11.5286 5.04582L10.8523 3.69951L10.1566 5.09802C10.1042 5.14748 10.0517 5.15298 10.0076 5.12L9.33951 4.74634L9.74254 6.91966C9.70942 7.00758 9.63212 7.02956 9.54379 6.98285L8.62453 5.94702C8.50583 6.13935 8.42577 6.44983 8.26566 6.52126C8.10831 6.5872 7.57553 6.38938 7.21942 6.31245C7.34089 6.74931 7.72184 7.47467 7.48167 7.71371V7.71096Z" fill="#FF0000"/>
</svg>
