<svg width="24" height="25" viewBox="0 0 24 25" fill="none" xmlns="http://www.w3.org/2000/svg">
<path d="M19.0711 5.66938C17.1823 3.78063 14.6711 2.74048 12 2.74048C9.32891 2.74048 6.81766 3.78063 4.92891 5.66938C3.0402 7.55814 2 10.0694 2 12.7405C2 15.4116 3.0402 17.9228 4.92891 19.8116C6.81766 21.7003 9.32891 22.7405 12 22.7405C14.6711 22.7405 17.1823 21.7003 19.0711 19.8116C20.9598 17.9228 22 15.4116 22 12.7405C22 10.0694 20.9598 7.55814 19.0711 5.66938ZM12 21.5686C7.13215 21.5686 3.17188 17.6083 3.17188 12.7405C3.17188 7.87263 7.13215 3.91235 12 3.91235C16.8679 3.91235 20.8281 7.87263 20.8281 12.7405C20.8281 17.6083 16.8679 21.5686 12 21.5686Z" fill="#454D53"/>
<path d="M12.724 12.3889H11.4687C10.7536 12.3889 10.1718 11.8071 10.1718 11.092C10.1718 10.3769 10.7536 9.79517 11.4687 9.79517H13.9792C14.3027 9.79517 14.5651 9.53282 14.5651 9.20923C14.5651 8.88563 14.3027 8.62329 13.9792 8.62329H12.6823V7.32642C12.6823 7.00282 12.4199 6.74048 12.0963 6.74048C11.7727 6.74048 11.5104 7.00282 11.5104 7.32642V8.62329H11.4688C10.1075 8.62329 9 9.73079 9 11.092C9 12.4533 10.1075 13.5608 11.4688 13.5608H12.724C13.4391 13.5608 14.0208 14.1425 14.0208 14.8576C14.0208 15.5727 13.4391 16.1545 12.724 16.1545H10.2136C9.88996 16.1545 9.62762 16.4168 9.62762 16.7404C9.62762 17.064 9.88996 17.3264 10.2136 17.3264H11.5104V18.6233C11.5104 18.9469 11.7727 19.2092 12.0963 19.2092C12.4199 19.2092 12.6823 18.9469 12.6823 18.6233V17.3264H12.724C14.0852 17.3264 15.1927 16.2189 15.1927 14.8576C15.1927 13.4964 14.0852 12.3889 12.724 12.3889Z" fill="#454D53"/>
</svg>
