<svg width="136" height="29" viewBox="0 0 136 29" fill="none" xmlns="http://www.w3.org/2000/svg">
<path d="M103.967 18.4857C103.316 18.6775 103.01 19.176 103.048 19.713C103.125 20.2115 103.546 20.5567 104.236 20.6334C104.887 20.6718 105.538 20.5184 106.228 20.4033C106.688 20.3266 106.918 20.1348 106.88 19.5979C106.841 18.2939 106.88 18.2939 105.347 18.3323C104.887 18.3323 104.427 18.3706 103.967 18.4857ZM110.558 16.9516C110.558 17.8721 110.596 18.7925 110.558 19.713C110.52 20.2882 110.749 20.5567 111.324 20.5951C111.669 20.5951 111.707 20.7485 111.707 21.0553C111.631 21.7073 111.631 22.3976 111.631 23.0496C111.631 23.3181 111.516 23.4715 111.209 23.4715C110.251 23.4715 109.293 23.4715 108.374 23.1646C108.029 23.0496 107.646 22.8578 107.454 22.5127C107.263 22.1291 107.071 22.2826 106.841 22.436C105.309 23.5098 103.661 23.8166 101.86 23.2797C100.366 22.8578 99.5228 21.784 99.4078 20.2115C99.2929 18.4473 99.9825 17.2201 101.439 16.6064C102.473 16.1462 103.584 16.0695 104.734 16.0312C105.309 16.0312 105.883 15.9928 106.458 16.0312C106.803 16.0312 106.88 15.9161 106.88 15.6093C106.88 14.4587 106.611 14.1136 105.462 13.9218C104.082 13.73 102.741 14.0369 101.4 14.3053C101.055 14.382 100.902 14.3437 100.787 13.9601C100.634 13.3082 100.442 12.6562 100.251 12.0425C100.174 11.7741 100.174 11.659 100.481 11.544C102.818 10.6619 105.309 10.4701 107.761 10.9303C109.6 11.2755 110.481 12.3877 110.52 14.267C110.558 15.1874 110.52 16.0695 110.558 16.9516ZM64.1566 18.6008C64.1566 18.4473 64.1183 18.2939 63.9267 18.3323C63.0071 18.3706 62.0875 18.2172 61.2063 18.524C60.5932 18.7542 60.325 19.176 60.4016 19.7513C60.4399 20.2115 60.8614 20.5567 61.4745 20.6334C62.0492 20.6718 62.6623 20.6334 63.237 20.48C64.1949 20.2499 64.1949 20.2499 64.1566 19.3294C64.1566 19.061 64.1566 18.8309 64.1566 18.6008ZM67.8733 17.105C67.8733 17.9871 67.9116 18.8692 67.8733 19.7513C67.835 20.2882 68.0649 20.5951 68.6013 20.5951C68.9462 20.5951 69.0228 20.7485 68.9845 21.0553C68.9462 21.7456 68.9079 22.4743 68.8696 23.1646C68.8696 23.3564 68.8312 23.4715 68.6013 23.4715C67.4518 23.5098 66.3023 23.5098 65.2295 22.9729C65.0379 22.8962 64.8846 22.7811 64.7697 22.5894C64.5398 22.1291 64.3482 22.3209 64.0417 22.5127C62.624 23.5482 60.7848 23.855 59.0988 23.3181C57.6045 22.8962 56.7999 21.8223 56.7232 20.2499C56.6083 18.4473 57.2213 17.2968 58.7157 16.6448C59.6736 16.2229 60.7081 16.1079 61.7427 16.0695C62.4324 16.0312 63.1604 16.0695 63.8501 16.0695C64.1183 16.0695 64.2333 15.9928 64.2333 15.686C64.2716 14.5354 63.9267 14.1136 62.7772 13.9601C61.3978 13.7684 60.0568 14.0752 58.7157 14.3437C58.3325 14.4204 58.2176 14.382 58.1026 13.9985C57.9494 13.3465 57.7578 12.6562 57.5662 12.0042C57.4896 11.7741 57.5662 11.659 57.7961 11.544C60.2483 10.6235 62.7772 10.3551 65.3444 10.9687C67.0687 11.3906 67.8733 12.4644 67.9116 14.267C67.8733 15.2258 67.8733 16.1462 67.8733 17.105ZM119.409 10.7769C120.597 10.7002 121.746 10.9303 122.857 11.3522C123.202 11.5056 123.279 11.659 123.126 12.0042C122.857 12.6178 122.666 13.2698 122.436 13.8834C122.321 14.2286 122.168 14.3053 121.861 14.1519C120.98 13.8451 120.06 13.73 119.141 13.7684C117.646 13.8451 116.689 14.7272 116.459 16.1846C116.344 16.9516 116.344 17.6803 116.459 18.4473C116.65 19.6363 117.34 20.2882 118.566 20.48C119.754 20.6334 120.942 20.5951 122.091 20.3266C122.436 20.2499 122.551 20.3266 122.589 20.6718C122.666 21.3621 122.819 22.0141 122.972 22.7044C123.049 23.0112 123.011 23.1263 122.666 23.203C120.635 23.7016 118.528 23.7016 116.497 23.2413C114.121 22.7044 112.78 21.0936 112.512 18.6391C112.397 17.4502 112.359 16.2229 112.665 15.034C113.355 12.5411 115.501 10.8536 118.183 10.6619C118.643 10.7386 119.026 10.7769 119.409 10.7769ZM73.889 12.1576C74.3105 11.9275 74.6937 11.6974 75.0768 11.4673C76.3413 10.7769 77.7973 10.5468 79.215 10.8153C80.9776 11.1604 81.7822 12.1193 81.9355 13.8834C82.0887 15.3025 82.0121 16.6831 82.0121 18.1022C82.0121 19.6746 82.0121 21.2854 82.0121 22.8578C82.0121 23.2413 81.9355 23.3948 81.514 23.3948C80.5944 23.3564 79.6365 23.3564 78.7169 23.3948C78.3337 23.3948 78.2188 23.2797 78.2188 22.8962C78.2188 20.6334 78.2188 18.3323 78.2188 16.0695C78.2188 15.686 78.1805 15.3025 78.1421 14.9573C77.9889 14.3053 77.7207 14.0369 77.031 13.9985C76.1114 13.9218 75.1918 14.0752 74.3105 14.382C73.9273 14.5354 73.7741 14.6888 73.7741 15.1491C73.8124 17.7187 73.7741 20.2882 73.8124 22.8578C73.8124 23.2797 73.7357 23.4331 73.2759 23.4331C72.3564 23.3948 71.3984 23.3948 70.4789 23.4331C70.134 23.4331 70.019 23.3564 70.019 22.9729C70.019 19.1377 70.019 15.2641 70.019 11.4289C70.019 11.0837 70.134 11.007 70.4405 11.007C71.3601 11.007 72.318 11.0454 73.2376 11.007C73.6974 11.007 73.8507 11.1221 73.8124 11.5823C73.7741 11.7741 73.7741 12.0042 73.889 12.1576ZM83.2766 15.3792C83.2766 12.8863 83.2766 10.3934 83.2766 7.90052C83.2766 7.47865 83.3915 7.40194 83.7747 7.40194C84.7326 7.4403 85.7288 7.4403 86.6867 7.40194C87.0316 7.40194 87.1465 7.517 87.1465 7.86217C87.1465 9.70307 87.1465 11.5056 87.1082 13.3465C87.1082 13.8451 87.2615 13.9601 87.7213 13.9218C89.5988 13.8834 91.5146 13.8834 93.3921 13.9218C93.8136 13.9218 93.9285 13.8067 93.9285 13.3849C93.8902 11.544 93.9285 9.74142 93.8902 7.90052C93.8902 7.47865 94.0052 7.40194 94.3883 7.40194C95.3846 7.4403 96.3808 7.40194 97.377 7.40194C97.6836 7.40194 97.7985 7.47865 97.7985 7.78547C97.7985 12.8479 97.7985 17.9488 97.7985 23.0112C97.7985 23.3564 97.6452 23.4331 97.3387 23.4331C96.3425 23.4331 95.3462 23.3948 94.35 23.4331C93.9669 23.4331 93.8902 23.2797 93.8902 22.9345C93.8902 21.0553 93.8902 19.2144 93.8902 17.3351C93.8902 16.9516 93.8136 16.8366 93.3921 16.8366C91.438 16.8749 89.4838 16.8749 87.568 16.8366C87.1848 16.8366 87.0699 16.9516 87.0699 17.3351C87.0699 19.176 87.0699 21.0169 87.1082 22.8578C87.1082 23.3564 86.9549 23.4715 86.4951 23.4331C85.5755 23.3948 84.6943 23.3948 83.7747 23.4331C83.2766 23.4715 83.1999 23.2797 83.1999 22.8195C83.2766 20.2882 83.2766 17.7954 83.2766 15.3792ZM135.962 21.4004C135.694 21.9374 135.694 22.551 135.617 23.1263C135.579 23.5482 135.464 23.7016 135.004 23.6632C132.935 23.5482 131.287 22.7811 130.099 21.0553C129.486 20.1732 128.797 19.3678 128.069 18.409V19.0993C128.069 20.3649 128.069 21.6689 128.069 22.9345C128.069 23.2797 127.992 23.3948 127.609 23.3948C126.651 23.3948 125.655 23.3948 124.697 23.3948C124.39 23.3948 124.275 23.3181 124.275 22.9729C124.275 17.5652 124.275 12.1192 124.275 6.71161C124.275 6.36644 124.39 6.28973 124.697 6.28973C125.655 6.32809 126.651 6.32809 127.609 6.28973C128.03 6.28973 128.069 6.44314 128.069 6.78831C128.069 9.51131 128.069 12.196 128.069 14.919V15.6093C128.643 14.8422 129.103 14.2286 129.563 13.615C130.138 12.8479 130.674 12.1192 131.249 11.3522C131.364 11.1988 131.44 11.0454 131.67 11.0454H135.54L133.203 13.9985C132.59 14.8039 131.938 15.5709 131.325 16.3763C131.134 16.6064 131.057 16.7982 131.325 17.0667C131.977 17.7954 132.628 18.524 133.28 19.2527C134.008 20.0581 134.966 20.5184 136 20.8635L135.962 21.4004ZM40.0939 7.40194C41.2817 7.40194 42.5078 7.40195 43.7339 7.36359C44.0788 7.36359 44.2321 7.47865 44.3087 7.82382C45.4965 11.7741 46.6843 15.7243 47.8721 19.6746C47.9488 19.9047 48.0254 20.1348 48.1403 20.48C48.5235 19.4828 48.83 18.6007 49.1749 17.6803C50.3627 14.4204 51.5122 11.1604 52.6617 7.90052C52.7766 7.517 52.9682 7.36359 53.3897 7.40194C54.3476 7.4403 55.3055 7.4403 56.2634 7.40194C56.7232 7.40194 56.7999 7.47865 56.6083 7.93887C55.2289 11.4673 53.8495 14.9957 52.4701 18.524C51.8954 19.9814 51.3206 21.4388 50.7842 22.8962C50.6309 23.2797 50.4776 23.4715 50.0178 23.4331C48.7151 23.3948 47.4123 23.3948 46.1096 23.4331C45.6881 23.4331 45.5348 23.2797 45.3815 22.8962C43.6956 17.9104 42.0097 12.9246 40.2855 7.93887C40.2471 7.78547 40.1705 7.63206 40.0939 7.517V7.40194V7.40194Z" fill="#56AADF"/>
<path d="M35.304 0.115057C34.9592 1.22727 34.6526 2.33948 34.3461 3.45169C31.8939 11.8124 29.4416 20.1349 26.9894 28.4956C26.8744 28.8408 26.7594 28.9558 26.3763 28.9558C24.2306 28.9175 22.1232 28.9558 19.9774 28.9558C19.9008 28.9558 19.8242 28.9558 19.6709 28.9175C19.9774 27.8436 20.284 26.8081 20.5905 25.7726C21.2802 23.3948 21.9699 21.017 22.6979 18.6775C22.8128 18.294 22.7362 18.1789 22.3147 18.1789C20.4755 18.1789 18.6364 18.1789 16.7972 18.1789C16.1458 18.1789 16.1458 18.1789 16.3374 17.5269C16.8355 15.6093 17.3719 13.6533 17.87 11.7357C17.9467 11.3906 18.0999 11.2755 18.4831 11.2755C20.4372 11.3139 22.3914 11.3139 24.3455 11.3522C24.767 11.3522 24.9203 11.1988 25.0352 10.8153C26.0314 7.32525 27.066 3.87356 28.1005 0.383521C28.1772 0.191761 28.2155 0 28.522 0C30.7827 0 33.005 0 35.2657 0C35.1891 0.0767042 35.2274 0.115057 35.304 0.115057Z" fill="#6BC0EC"/>
<path d="M2.58224 7.24852L7.33348 16.5681C7.48675 15.9928 7.64002 15.4942 7.79328 15.034C9.21099 10.2016 10.6287 5.33092 12.0464 0.498557C12.1614 0.115036 12.3146 0.0383301 12.6978 0.0383301C14.7669 0.0383301 16.836 0.0383301 18.9051 0.0383301H19.4032C19.02 1.30395 18.6752 2.49287 18.3303 3.72013C15.9164 11.9658 13.5024 20.1732 11.0885 28.4189C10.9736 28.8791 10.782 28.9942 10.3222 28.9942C8.59793 28.9558 6.83537 28.9558 5.11113 28.9942C4.84291 29.0325 4.61301 28.8791 4.53638 28.6106C3.04204 25.3124 1.58601 22.0141 0.0916662 18.6774C0.0150332 18.524 -0.0232851 18.2939 0.0150314 18.1022C0.819678 14.5738 1.70096 10.9687 2.58224 7.24852Z" fill="#56AADF"/>
</svg>
